<svg width="70" height="70" viewBox="0 0 70 70" fill="none" xmlns="http://www.w3.org/2000/svg">
<path d="M60.1727 29.2007C58.9938 24.5834 56.5429 20.3896 53.0987 17.0963C49.6546 13.8029 45.3553 11.5421 40.6899 10.571C36.0245 9.59984 31.1803 9.9574 26.708 11.603C22.2358 13.2485 18.3151 16.116 15.3917 19.8794C12.4684 23.6428 10.6598 28.151 10.1716 32.8913C9.68339 37.6316 10.5352 42.4137 12.6301 46.6939C14.725 50.9741 17.979 54.5806 22.022 57.1031C26.065 59.6256 30.7347 60.963 35.5001 60.9632C36.3325 60.966 37.1645 60.923 37.9922 60.8343C38.3469 60.7339 38.6715 60.548 38.9376 60.2929L59.9837 30.2577C60.1667 29.9377 60.2335 29.5643 60.1727 29.2007ZM38.5508 56.3054C38.4436 55.3897 38.3891 54.4687 38.3876 53.5468C38.37 48.3711 40.1179 43.3442 43.3427 39.296C46.5675 35.2478 51.0765 32.4203 56.1251 31.2804L38.5508 56.3054ZM35.5001 12.6148C40.3345 12.6099 45.0459 14.139 48.956 16.982C52.8662 19.8251 55.7734 23.8354 57.2594 28.4358C55.9039 28.646 54.5676 28.965 53.2633 29.3898L49.0524 25.1874C48.8055 24.956 48.4798 24.8272 48.1415 24.8272C47.8031 24.8272 47.4774 24.956 47.2305 25.1874L36.5313 35.878L32.5438 31.8905C32.3036 31.6595 31.9833 31.5304 31.6501 31.5304C31.3168 31.5304 30.9965 31.6595 30.7563 31.8905L15.2876 46.1733C13.4473 42.6884 12.5386 38.7871 12.6495 34.8476C12.7604 30.9082 13.8871 27.0642 15.9205 23.6882C17.9538 20.3123 20.8248 17.5189 24.2552 15.5788C27.6856 13.6387 31.559 12.6177 35.5001 12.6148ZM16.5938 48.3905L31.5985 34.589L34.7094 37.6999L32.6555 39.7968C32.535 39.9159 32.4392 40.0577 32.3739 40.2141C32.3086 40.3705 32.2749 40.5383 32.2749 40.7077C32.2749 40.8772 32.3086 41.045 32.3739 41.2013C32.4392 41.3577 32.535 41.4996 32.6555 41.6187C32.8972 41.8601 33.2249 41.9956 33.5665 41.9956C33.9081 41.9956 34.2357 41.8601 34.4774 41.6187L37.4422 38.6538L48.1415 27.9116L50.6422 30.4124C45.4668 32.7957 41.2388 36.8439 38.6329 41.9109C36.0269 46.9779 35.1933 52.7717 36.2649 58.3679H35.5001C31.7743 58.3708 28.1043 57.4633 24.8093 55.7244C21.5143 53.9855 18.694 51.4679 16.5938 48.3905Z" fill="black"/>
<path d="M35.5 26.5967C36.4348 26.5967 37.3487 26.3195 38.1259 25.8001C38.9032 25.2808 39.509 24.5426 39.8668 23.6789C40.2245 22.8152 40.3181 21.8649 40.1357 20.948C39.9534 20.0311 39.5032 19.189 38.8422 18.5279C38.1812 17.8669 37.339 17.4168 36.4221 17.2344C35.5052 17.052 34.5549 17.1456 33.6912 17.5033C32.8276 17.8611 32.0894 18.4669 31.57 19.2442C31.0506 20.0215 30.7734 20.9353 30.7734 21.8701C30.7734 23.1237 31.2714 24.3259 32.1578 25.2123C33.0442 26.0987 34.2464 26.5967 35.5 26.5967ZM35.5 19.7217C35.9249 19.7217 36.3403 19.8477 36.6936 20.0838C37.0469 20.3198 37.3223 20.6554 37.4849 21.0479C37.6475 21.4405 37.6901 21.8725 37.6072 22.2893C37.5243 22.706 37.3196 23.0888 37.0192 23.3893C36.7187 23.6898 36.3359 23.8944 35.9191 23.9773C35.5024 24.0602 35.0704 24.0176 34.6778 23.855C34.2853 23.6924 33.9497 23.417 33.7136 23.0637C33.4776 22.7104 33.3516 22.295 33.3516 21.8701C33.3516 21.3003 33.5779 20.7539 33.9808 20.3509C34.3837 19.948 34.9302 19.7217 35.5 19.7217Z" fill="black"/>
</svg>
