<svg width="70" height="70" viewBox="0 0 70 70" fill="none" xmlns="http://www.w3.org/2000/svg">
<path d="M52.8632 17.2741H49.8466C49.8291 17.246 49.8273 17.2145 49.808 17.1882L45.3076 10.9813C44.9383 10.4235 44.4324 9.96942 43.8379 9.66241L43.8099 9.63786C43.7643 9.61155 43.7134 9.61155 43.666 9.59226C43.1719 9.3531 42.6343 9.21705 42.0858 9.19238H27.9761C27.4467 9.21947 26.928 9.35183 26.4503 9.58174C26.3942 9.60454 26.3345 9.60629 26.2802 9.63611C26.2661 9.64312 26.2591 9.65715 26.2451 9.66592C25.677 9.96335 25.1927 10.3988 24.8368 10.9322L20.3153 17.1899C20.2978 17.2127 20.296 17.2408 20.282 17.2653L20.2732 17.2741H17.2373C15.1073 17.2811 13.0671 18.1325 11.5639 19.6415C10.0607 21.1506 9.21735 23.1943 9.21875 25.3243V52.9193C9.22478 55.0439 10.0723 57.0796 11.5758 58.5807C13.0792 60.0819 15.1162 60.9263 17.2408 60.9291H52.8773C55.0077 60.9263 57.0501 60.0788 58.5566 58.5723C60.063 57.0658 60.9106 55.0234 60.9134 52.893V25.3243C60.9106 23.1901 60.0616 21.1441 58.5525 19.635C57.0434 18.1259 54.9974 17.2769 52.8632 17.2741ZM47.2983 18.2089L44.7043 26.9115C44.5377 27.3745 44.2746 27.613 44.0835 27.6797C43.9993 27.7095 43.8835 27.727 43.7222 27.6271C43.6675 27.593 43.61 27.5636 43.5503 27.5394L41.4544 26.6344C41.4176 26.6133 41.3773 26.6011 41.3387 26.5853L36.9208 24.6788L43.4766 12.9351L47.2983 18.2089ZM33.9866 34.3741H36.135L40.8546 53.4928C40.8755 53.6252 40.8599 53.7608 40.8095 53.885C40.7591 54.0092 40.6759 54.1173 40.5688 54.1978L34.9915 58.2773L29.5406 54.1996C29.3213 54.0347 29.2108 53.7629 29.2301 53.605L33.9866 34.3741ZM36.4823 31.7433H33.6428L31.2874 28.3619L35.0126 26.7589H35.1038L38.8412 28.3724L36.4823 31.7433ZM35.0617 11.8232H41.0826L35.0599 22.6128L29.0127 11.8232H35.0617ZM26.6257 12.9456L33.1991 24.6753L26.5503 27.5359C26.492 27.5609 26.4358 27.5902 26.3819 27.6236C26.2188 27.7235 26.103 27.7007 26.0224 27.6744C25.8347 27.6078 25.5769 27.3745 25.4366 26.9799L22.8111 18.2282L26.6257 12.9456ZM17.2496 58.3001H17.2426C15.8115 58.2978 14.4397 57.7276 13.4286 56.7148C12.4174 55.702 11.8495 54.3294 11.8495 52.8982V25.3225C11.8486 23.8881 12.4169 22.512 13.4297 21.4962C14.4425 20.4805 15.817 19.9081 17.2514 19.9049H20.5749L22.9373 27.7972C23.3407 28.9407 24.1457 29.8001 25.1454 30.1544C25.4769 30.2719 25.8172 30.3315 26.1556 30.3315C26.6748 30.3315 27.1904 30.1929 27.6675 29.9211L28.8215 29.4248L31.5382 33.3236L26.6537 53.0912C26.5592 53.6957 26.6313 54.3147 26.8621 54.8814C27.0929 55.4481 27.4738 55.9412 27.9639 56.3077L30.6315 58.3036H17.2496V58.3001ZM58.2826 52.8947C58.281 53.6062 58.1393 54.3103 57.8655 54.967C57.5918 55.6237 57.1914 56.22 56.6871 56.722C56.1829 57.2239 55.5848 57.6216 54.9269 57.8924C54.269 58.1632 53.5641 58.3017 52.8527 58.3001H39.4796L42.1472 56.3042C43.1452 55.5553 43.6468 54.3224 43.4328 52.9754L38.5869 33.3218L41.3001 29.4335L42.4313 29.9211C42.9084 30.1964 43.4275 30.335 43.9502 30.335C44.2852 30.335 44.6236 30.2771 44.9534 30.1614C45.9583 29.8088 46.7704 28.946 47.2018 27.727L49.5362 19.9031H52.8632C54.2998 19.9054 55.6769 20.4772 56.6927 21.493C57.7086 22.5088 58.2803 23.8859 58.2826 25.3225V52.8947Z" fill="black"/>
<path d="M53.7804 35.4246H46.6633C46.3144 35.4246 45.9798 35.5631 45.7332 35.8098C45.4865 36.0565 45.3479 36.3911 45.3479 36.7399C45.3479 37.0888 45.4865 37.4234 45.7332 37.6701C45.9798 37.9167 46.3144 38.0553 46.6633 38.0553H53.7804C54.1293 38.0553 54.4638 37.9167 54.7105 37.6701C54.9572 37.4234 55.0958 37.0888 55.0958 36.7399C55.0958 36.3911 54.9572 36.0565 54.7105 35.8098C54.4638 35.5631 54.1293 35.4246 53.7804 35.4246Z" fill="black"/>
</svg>
