<svg width="70" height="70" viewBox="0 0 70 70" fill="none" xmlns="http://www.w3.org/2000/svg">
<path d="M56.6246 45.4821V40.8461C56.6246 36.0339 55.1172 31.46 52.2654 27.6189C49.734 24.2093 46.2339 21.5945 42.3261 20.1706C42.2173 17.852 40.3509 16 38.0719 16H32.3924C30.1134 16 28.2469 17.852 28.1382 20.1706C24.2304 21.5945 20.7303 24.2093 18.1989 27.6189C15.3471 31.46 13.8397 36.0339 13.8397 40.8461V45.4821C12.1871 46.0854 11 47.7099 11 49.6153C11 52.0329 12.9108 53.9999 15.2596 53.9999H55.2047C57.5535 53.9999 59.4643 52.0329 59.4643 49.6153C59.4643 47.7099 58.2772 46.0854 56.6246 45.4821ZM16.6794 40.8461C16.6794 35.5757 18.8665 30.6418 22.4535 27.1218V32.0769C22.4535 32.884 23.0892 33.5384 23.8733 33.5384C24.6575 33.5384 25.2932 32.884 25.2932 32.0769V24.8293C26.195 24.2364 27.1451 23.7252 28.1329 23.3016V34.9999C28.1329 35.8071 28.7686 36.4615 29.5527 36.4615C30.3369 36.4615 30.9726 35.8071 30.9726 34.9999V20.3846C30.9726 19.5787 31.6095 18.9231 32.3924 18.9231H38.0719C38.8548 18.9231 39.4917 19.5787 39.4917 20.3846V34.9999C39.4917 35.8071 40.1274 36.4615 40.9116 36.4615C41.6957 36.4615 42.3314 35.8071 42.3314 34.9999V23.3016C43.3191 23.7253 44.2693 24.2365 45.1711 24.8293V32.0769C45.1711 32.884 45.8068 33.5384 46.591 33.5384C47.3751 33.5384 48.0108 32.884 48.0108 32.0769V27.1218C51.5977 30.6418 53.7849 35.5757 53.7849 40.8461V45.2307H16.6794V40.8461ZM55.2047 51.0768H15.2596C14.4767 51.0768 13.8397 50.4212 13.8397 49.6153C13.8397 48.8094 14.4767 48.1537 15.2596 48.1537H55.2047C55.9876 48.1537 56.6246 48.8094 56.6246 49.6153C56.6246 50.4212 55.9876 51.0768 55.2047 51.0768Z" fill="black"/>
</svg>
