<svg width="70" height="70" viewBox="0 0 70 70" fill="none" xmlns="http://www.w3.org/2000/svg">
<path d="M57.9826 52.8041C58.071 52.6792 58.1343 52.5375 58.1688 52.3873C58.2033 52.2371 58.2084 52.0814 58.1836 51.9292L52.7675 18.5177C52.3509 15.9979 50.954 13.7645 48.9094 12.3206C48.6451 11.5379 48.1177 10.8774 47.4216 10.4575L41.1389 6.65966C40.5569 6.22944 39.8724 6 39.151 6H30.066C29.3437 6 28.6593 6.22979 28.0781 6.66013L21.7958 10.4575C21.0999 10.8769 20.5723 11.5366 20.3075 12.3186C19.2925 13.0346 18.4278 13.9522 17.7645 15.0169C17.1012 16.0816 16.6528 17.2719 16.4459 18.5174L11.0154 51.9287C10.9907 52.081 10.9957 52.2368 11.0303 52.387C11.0648 52.5373 11.128 52.679 11.2164 52.804C11.3047 52.9289 11.4164 53.0346 11.545 53.1149C11.6735 53.1953 11.8163 53.2486 11.9651 53.2718L18.6635 54.3153L17.5813 61.707C17.5636 61.8697 17.5797 62.0344 17.6284 62.1904C17.677 62.3463 17.7572 62.49 17.8637 62.6119C17.9702 62.7339 18.1006 62.8316 18.2464 62.8984C18.3922 62.9653 18.5501 62.9999 18.7098 63H50.5074C50.6671 62.9999 50.8249 62.9653 50.9707 62.8985C51.1164 62.8316 51.2468 62.734 51.3533 62.612C51.4598 62.49 51.54 62.3463 51.5887 62.1904C51.6374 62.0345 51.6535 61.8698 51.6359 61.707L50.5531 54.3131L57.2342 53.2723C57.383 53.2489 57.5257 53.1955 57.6542 53.1151C57.7826 53.0348 57.8943 52.929 57.9826 52.8041ZM46.495 14.2909L42.8906 17.9878C42.4019 18.4886 42.4599 19.3181 43.0122 19.7429L45.188 21.4162C45.7825 21.8734 45.7954 22.7796 45.2182 23.2565C44.8661 23.5249 37.3469 29.2508 36.8155 29.6556L42.2177 12.9201C42.4421 12.3307 42.5575 11.7036 42.558 11.0708V10.2214L46.2687 12.4648C46.8933 12.8419 47.0318 13.7409 46.495 14.2909ZM30.066 8.32931H39.151C39.7538 8.32931 40.2866 8.83244 40.2866 9.49396V10.6586H28.9303V9.49396C28.9303 8.83244 29.4644 8.32931 30.066 8.32931ZM39.8031 12.9879L34.6085 29.0811L29.4139 12.9879H39.8031ZM22.9487 12.4643L26.6591 10.2214V11.0708C26.6594 11.7036 26.7749 12.3308 26.9998 12.9201L32.4015 29.6556L23.9987 23.2569C23.4221 22.7806 23.4344 21.8739 24.0288 21.4168L26.2048 19.7429C26.7581 19.3176 26.8144 18.4882 26.3263 17.9878L22.7222 14.2908C22.1964 13.7518 22.3077 12.8514 22.9487 12.4643ZM13.4449 51.1463L13.8237 48.8156L19.167 49.6413C19.1637 49.6673 19.1613 49.6934 19.1598 49.7196L18.9137 51.9979L13.4449 51.1463ZM21.3119 50.9557H27.7948C28.422 50.9557 28.9304 50.4342 28.9304 49.791C28.9304 49.1478 28.422 48.6264 27.7948 48.6264H21.5635L23.2451 33.0563C23.3144 32.4167 22.8649 31.8412 22.2417 31.7703C21.618 31.7002 21.0569 32.1606 20.9881 32.7999L19.4191 47.3243L14.1974 46.5177L18.6858 18.9044C18.9227 17.4777 19.5778 16.1747 20.5422 15.1534C20.6967 15.4412 20.8897 15.7054 21.1158 15.9381L23.7948 18.6851L22.6662 19.5531C20.8753 20.9302 20.843 23.6735 22.6046 25.0952C22.613 25.1021 32.7937 32.8556 32.7937 32.8556C31.7854 33.9325 31.2016 35.3847 31.2016 36.8947V60.6702H19.9781L21.3119 50.9557ZM33.4729 60.6702V36.8948C33.4729 35.7983 33.9851 34.751 34.8426 34.0941C34.978 33.9908 33.3512 35.2342 46.5871 25.1154L46.6124 25.0958C48.3713 23.676 48.3443 20.9326 46.5508 19.5532L45.4222 18.6852L48.1011 15.9382C48.3268 15.7061 48.5195 15.4425 48.6735 15.1552C49.6373 16.1771 50.2918 17.4795 50.5272 18.9031L55.0032 46.5149L49.798 47.3207L48.2289 32.7997C48.1602 32.1601 47.5981 31.6993 46.9753 31.7702C46.352 31.8412 45.9027 32.4167 45.9718 33.0563L47.6537 48.6264H41.4223C40.7949 48.6264 40.2866 49.1478 40.2866 49.791C40.2866 50.4342 40.7949 50.9557 41.4223 50.9557H47.9056L49.239 60.6702H33.4729ZM50.3028 51.9957C50.3028 51.9957 50.0529 49.6645 50.0495 49.6377L55.3759 48.8133L55.7543 51.1463L50.3028 51.9957Z" fill="black"/>
</svg>
