<svg width="70" height="70" viewBox="0 0 70 70" fill="none" xmlns="http://www.w3.org/2000/svg">
<path d="M11.4355 48.9153H57.5645V54.6814H11.4355V48.9153ZM18.6431 20.0847V25.8508H30.1754C33.2371 25.8508 35.606 28.5343 35.2263 31.5724L33.0584 48.9153H47.4737V28.3431C47.4737 23.7821 43.7763 20.0847 39.2153 20.0847H18.6431Z" stroke="black" stroke-width="2.5" stroke-miterlimit="10" stroke-linejoin="round"/>
<path d="M15.7603 37.3831C14.1679 37.3831 12.8772 36.0923 12.8772 34.5V20.0847C12.8772 18.4924 14.1679 17.2017 15.7603 17.2017C17.3526 17.2017 18.6433 18.4924 18.6433 20.0847V34.5C18.6432 36.0923 17.3525 37.3831 15.7603 37.3831ZM15.7603 37.3831L15.7602 48.9153M47.4738 28.3431H53.2399" stroke="black" stroke-width="2.5" stroke-miterlimit="10" stroke-linejoin="round"/>
<path d="M24.4092 20.0847V14.3186M35.9414 20.0847V14.3186M53.2397 36.6014V20.0847M53.2397 34.5H56.1229" stroke="black" stroke-width="2.5" stroke-miterlimit="10" stroke-linecap="round" stroke-linejoin="round"/>
<path d="M41.6299 33.0525C42.3808 33.0525 43.1002 32.3922 43.0654 31.6169C43.0306 30.8392 42.4346 30.1814 41.6299 30.1814C40.879 30.1814 40.1596 30.8417 40.1943 31.6169C40.2292 32.3947 40.8251 33.0525 41.6299 33.0525Z" fill="black"/>
<path d="M12.877 31.6169H18.6431" stroke="black" stroke-width="2.5" stroke-miterlimit="10" stroke-linejoin="round"/>
</svg>
