<svg width="70" height="70" viewBox="0 0 70 70" fill="none" xmlns="http://www.w3.org/2000/svg">
<path d="M57.4466 30.9374C55.8429 30.416 54.4426 29.4059 53.442 28.0486C52.4413 26.6913 51.8905 25.055 51.8666 23.3689V14.3654C51.857 14.0643 51.7482 13.7747 51.5573 13.5416C51.3663 13.3085 51.1038 13.1449 50.8104 13.0761L41.763 11.0292C41.208 10.9668 40.6487 11.1009 40.1823 11.408C39.4515 12.1337 38.5848 12.7081 37.6317 13.0984C36.6787 13.4886 35.658 13.6871 34.6281 13.6824C33.5983 13.6776 32.5795 13.4698 31.63 13.0708C30.6806 12.6718 29.8192 12.0894 29.0952 11.357C28.8816 11.1986 28.6359 11.0891 28.3753 11.0362C28.1147 10.9834 27.8457 10.9884 27.5873 11.0511C24.7245 11.5828 21.4027 12.5079 18.4671 13.098C18.1816 13.1703 17.9291 13.3371 17.7505 13.5712C17.572 13.8053 17.4779 14.0929 17.4836 14.3873V23.3689C17.4598 25.055 16.909 26.6913 15.9083 28.0486C14.9077 29.4059 13.5073 30.416 11.9037 30.9374C11.6452 31.0208 11.4191 31.1828 11.2572 31.4009C11.0953 31.619 11.0055 31.8822 11.0004 32.1538V53.8758C10.9934 54.159 11.0774 54.437 11.2399 54.6691C11.4025 54.9011 11.6351 55.0749 11.9037 55.1651C24.7245 59.3245 44.6258 59.4775 57.4466 55.1651C57.7152 55.0749 57.9478 54.9011 58.1103 54.6691C58.2729 54.437 58.3568 54.159 58.3499 53.8758V32.1538C58.3448 31.8822 58.255 31.619 58.0931 31.4009C57.9311 31.1828 57.7051 31.0208 57.4466 30.9374ZM49.2442 15.9534V23.3689C49.264 25.371 49.847 27.3272 50.9266 29.0135C52.0061 30.6998 53.5386 32.0481 55.3487 32.9041C55.4624 32.9609 55.558 33.0482 55.6249 33.1563C55.6918 33.2644 55.7273 33.3889 55.7275 33.516V35.4828C55.7275 35.6625 55.6561 35.8348 55.529 35.9618C55.402 36.0889 55.2297 36.1602 55.05 36.1602H39.5776C39.4921 36.1597 39.4076 36.1412 39.3296 36.106C39.2516 36.0708 39.1819 36.0196 39.1249 35.9558C39.0679 35.892 39.0249 35.8169 38.9988 35.7354C38.9726 35.6539 38.9639 35.5679 38.973 35.4828L38.9002 31.7532C38.9002 31.6731 38.973 31.6731 38.973 31.6002L42.3676 14.5694C42.3979 14.4044 42.4904 14.2573 42.6259 14.1584C42.7614 14.0594 42.9297 14.0162 43.0961 14.0376L48.676 15.327C48.821 15.3505 48.9533 15.4237 49.0503 15.534C49.1473 15.6442 49.2029 15.7848 49.2078 15.9316L49.2442 15.9534ZM39.5922 43.634H55.0718C55.24 43.6314 55.4031 43.6921 55.5286 43.8041C55.6541 43.9161 55.7329 44.0712 55.7493 44.2386V45.222C55.7493 45.4023 55.6782 45.5754 55.5513 45.7036C55.4245 45.8318 55.2522 45.9048 55.0718 45.9067H39.5776C39.4089 45.8902 39.2528 45.8104 39.1406 45.6833C39.0284 45.5563 38.9685 45.3914 38.973 45.222V44.2604C38.9873 44.0999 39.0398 43.945 39.126 43.8088C39.2617 43.7215 39.4168 43.669 39.5776 43.6558L39.5922 43.634ZM38.9876 40.305V39.4163C38.9866 39.3367 39.0016 39.2576 39.0316 39.1838C39.0617 39.11 39.1062 39.043 39.1625 38.9867C39.2188 38.9303 39.2859 38.8858 39.3597 38.8558C39.4335 38.8257 39.5125 38.8108 39.5922 38.8117H55.0718C55.24 38.8091 55.4031 38.8698 55.5286 38.9818C55.6541 39.0938 55.7329 39.2489 55.7493 39.4163V40.3269C55.7493 40.4159 55.7318 40.504 55.6977 40.5861C55.6637 40.6683 55.6138 40.743 55.5509 40.8059C55.488 40.8688 55.4133 40.9187 55.3311 40.9528C55.2489 40.9868 55.1608 41.0043 55.0718 41.0043H39.5776C39.4921 41.0038 39.4076 40.9853 39.3296 40.9501C39.2516 40.9149 39.1819 40.8637 39.1249 40.7999C39.0679 40.736 39.0249 40.661 38.9988 40.5795C38.9726 40.498 38.9639 40.412 38.973 40.3269L38.9876 40.305ZM20.1061 23.3689V15.9534C20.1088 15.8181 20.1539 15.6871 20.2349 15.5786C20.3158 15.4702 20.4287 15.3899 20.5577 15.3488L26.1377 14.0595C26.221 14.0404 26.3075 14.0395 26.3912 14.0567C26.475 14.0739 26.5541 14.1089 26.6231 14.1593C26.6922 14.2097 26.7496 14.2744 26.7915 14.3489C26.8335 14.4234 26.8589 14.5061 26.8661 14.5913L30.3336 31.3453V35.5119C30.3345 35.6012 30.3177 35.6897 30.284 35.7723C30.2503 35.855 30.2004 35.93 30.1373 35.9931C30.0742 36.0562 29.9991 36.1061 29.9165 36.1398C29.8339 36.1735 29.7453 36.1904 29.6561 36.1894H14.2784C14.1104 36.1746 13.9543 36.0963 13.8419 35.9704C13.7296 35.8446 13.6695 35.6806 13.6738 35.5119V33.5452C13.674 33.4181 13.7095 33.2935 13.7764 33.1854C13.8433 33.0774 13.9389 32.9901 14.0526 32.9333C15.8613 32.0727 17.3896 30.7179 18.4608 29.0254C19.532 27.3329 20.1024 25.3719 20.1061 23.3689ZM29.6852 45.9504H14.2784C14.1098 45.9339 13.9536 45.8541 13.8414 45.727C13.7292 45.6 13.6693 45.4351 13.6738 45.2657V44.2604C13.6856 44.104 13.7531 43.957 13.864 43.846C13.9749 43.7351 14.122 43.6676 14.2784 43.6558H29.6998C29.8685 43.6515 30.0324 43.7116 30.1583 43.8239C30.2842 43.9363 30.3625 44.0924 30.3773 44.2604V45.2438C30.3782 45.3334 30.3614 45.4223 30.3278 45.5053C30.2942 45.5884 30.2444 45.6639 30.1814 45.7276C30.1184 45.7913 30.0434 45.8418 29.9608 45.8763C29.8781 45.9108 29.7894 45.9286 29.6998 45.9286L29.6852 45.9504ZM29.6852 41.0262H14.2784C14.1104 41.0114 13.9543 40.9331 13.8419 40.8072C13.7296 40.6814 13.6695 40.5174 13.6738 40.3487V39.4163C13.6856 39.2599 13.7531 39.1129 13.864 39.0019C13.9749 38.891 14.122 38.8235 14.2784 38.8117H29.6998C29.8685 38.8074 30.0324 38.8675 30.1583 38.9798C30.2842 39.0922 30.3625 39.2483 30.3773 39.4163V40.3269C30.3782 40.4161 30.3614 40.5047 30.3277 40.5873C30.294 40.6699 30.2441 40.745 30.181 40.8081C30.1179 40.8712 30.0428 40.9211 29.9602 40.9548C29.8776 40.9885 29.789 41.0053 29.6998 41.0043L29.6852 41.0262ZM13.6593 52.4553V49.1847C13.6693 49.0269 13.7361 48.8781 13.8472 48.7657C13.9583 48.6533 14.1063 48.5848 14.2639 48.5728H29.6998C29.7894 48.5728 29.8781 48.5905 29.9608 48.625C30.0434 48.6595 30.1184 48.7101 30.1814 48.7738C30.2444 48.8375 30.2942 48.913 30.3278 48.996C30.3614 49.0791 30.3782 49.1679 30.3773 49.2575C30.0786 52.7394 23.8212 55.0122 20.9511 54.6334C18.6241 54.2927 16.3291 53.7616 14.089 53.0454C13.953 53.0144 13.8325 52.9356 13.7496 52.8233C13.6668 52.711 13.6269 52.5727 13.6374 52.4335L13.6593 52.4553ZM29.27 54.9539C31.3024 53.5917 33.0361 51.6249 33.0361 49.0536L32.9633 31.2652V31.1122L30.0495 16.2739C30.0213 16.1648 30.025 16.0498 30.0602 15.9426C30.0953 15.8355 30.1605 15.7407 30.2478 15.6694C30.3352 15.5981 30.4412 15.5534 30.5532 15.5405C30.6652 15.5275 30.7786 15.547 30.8799 15.5965C32.0821 16.119 33.3789 16.3887 34.6897 16.3887C36.0005 16.3887 37.2974 16.119 38.4995 15.5965C38.6092 15.5565 38.7274 15.5455 38.8426 15.5646C38.9577 15.5838 39.066 15.6323 39.1569 15.7056C39.2478 15.7789 39.3182 15.8744 39.3613 15.9829C39.4044 16.0915 39.4187 16.2093 39.4028 16.3249L36.336 31.3963V49.0317C36.336 51.5302 38.1426 53.5699 40.1021 54.8592C40.3279 55.0122 40.2551 55.4638 39.9564 55.4638C36.4392 55.6896 32.9111 55.6896 29.3939 55.4638C29.3332 55.46 29.2753 55.4374 29.2281 55.399C29.181 55.3607 29.147 55.3086 29.131 55.25C29.1149 55.1914 29.1176 55.1292 29.1386 55.0722C29.1596 55.0152 29.1979 54.9662 29.2482 54.932L29.27 54.9539ZM48.4211 54.6552C45.5073 55.034 39.2935 52.6884 38.9949 49.2794C38.9858 49.1939 38.9945 49.1075 39.0206 49.0257C39.0467 48.9438 39.0896 48.8683 39.1464 48.8039C39.2033 48.7395 39.2729 48.6876 39.3509 48.6516C39.4289 48.6156 39.5136 48.5962 39.5995 48.5946H55.0718C55.2412 48.5922 55.4052 48.6539 55.5309 48.7674C55.6566 48.8809 55.7346 49.0378 55.7493 49.2065V52.4553C55.7449 52.5911 55.6993 52.7223 55.6187 52.8316C55.538 52.9408 55.4261 53.023 55.2977 53.0672C53.0567 53.78 50.7619 54.3111 48.4356 54.6552H48.4211Z" fill="black"/>
</svg>
